<svg xmlns="http://www.w3.org/2000/svg" width="800" height="1000" viewBox="0 0 800 1000" role="img"><title>Fictional white oxford shirt, canonical view</title>
<path d="M300 130 235 172 150 470 118 722 190 736 232 482 262 362V880Q400 902 538 880V362L568 482 610 736 682 722 650 470 565 172 500 130Z" fill="#F4F2EC" stroke="#D3CFC4" stroke-width="4"/>
<path d="M118 722 190 736 186 770 114 757Z M682 722 610 736 614 770 686 757Z" fill="#ECE9E1" stroke="#D3CFC4" stroke-width="4"/>
<path d="M300 130 400 206 500 130 470 104 400 150 330 104Z" fill="#ECE9E1" stroke="#D3CFC4" stroke-width="4"/>
<path d="M400 206V890" stroke="#D3CFC4" stroke-width="4"/><g fill="#CFCAC0"><circle cx="400" cy="262" r="7"/><circle cx="400" cy="366" r="7"/><circle cx="400" cy="470" r="7"/><circle cx="400" cy="574" r="7"/><circle cx="400" cy="678" r="7"/><circle cx="400" cy="782" r="7"/></g>
<path d="M300 260h70v70h-70z" fill="none" stroke="#DDD9CF" stroke-width="3"/></svg>
